<svg width="408" height="742" viewBox="0 0 408 742" fill="none" xmlns="http://www.w3.org/2000/svg">
<path d="M180.105 129.357C182.467 125.761 182.073 104.718 180.105 95.8944C192.308 112.276 211.76 104.718 219.961 98.8911L225.373 126.86C222.913 131.189 212.285 140.145 203.231 141.344C194.178 142.543 183.057 134.685 180.105 129.357Z" fill="white" stroke="#393939"/>
<path d="M264.39 737.104C264.39 739.807 240.363 742 210.725 742C181.087 742 157.059 739.807 157.059 737.104C157.059 734.401 181.087 732.207 210.725 732.207C240.363 732.207 264.39 734.401 264.39 737.104Z" fill="#393939"/>
<path d="M12.2378 333.214C12.2378 333.214 0.752644 338.46 3.62446 357.112C6.49628 375.767 92.6342 497.007 114.455 578.614C136.279 660.219 119.05 727.834 210.358 720.257C301.666 712.679 313.725 608.342 333.825 526.153C353.924 443.963 403.886 391.502 406.757 354.197C409.627 316.893 386.081 323.303 386.081 323.303" stroke="#393939" stroke-width="1.33333" stroke-miterlimit="10"/>
<path d="M136.548 442.889C136.548 442.889 144.742 497.783 145.151 500.694C145.561 503.605 136.956 535.208 142.694 552.675C148.429 570.142 157.032 597.173 160.719 605.073C164.407 612.975 164.817 613.805 165.226 626.282C165.635 638.757 162.359 664.124 166.865 672.442C171.372 680.759 180.386 685.332 189.398 683.67C198.412 682.006 202.919 675.355 201.688 664.956C200.46 654.56 196.364 640.836 193.905 629.193C191.446 617.55 188.989 607.984 187.35 600.913C185.711 593.847 186.121 598.419 185.711 571.388C185.302 544.36 183.663 531.468 182.432 518.161C181.206 504.854 181.615 502.773 181.206 499.03C180.795 495.287 195.953 443.304 195.953 443.304L136.139 438.732L136.548 442.889Z" fill="#393939"/>
<path d="M136.548 442.889C136.548 442.889 144.742 497.783 145.151 500.694C145.561 503.605 136.956 535.208 142.694 552.675C148.429 570.142 157.032 597.173 160.719 605.073C164.407 612.975 164.817 613.805 165.226 626.282C165.635 638.757 162.359 664.124 166.865 672.442C171.372 680.759 180.386 685.332 189.398 683.67C198.412 682.006 202.919 675.355 201.688 664.956C200.46 654.56 196.364 640.836 193.905 629.193C191.446 617.55 188.989 607.984 187.35 600.913C185.711 593.847 186.121 598.419 185.711 571.388C185.302 544.36 183.663 531.468 182.432 518.161C181.206 504.854 181.615 502.773 181.206 499.03C180.795 495.287 195.953 443.304 195.953 443.304L136.139 438.732L136.548 442.889Z" stroke="#393939" stroke-width="1.33333" stroke-miterlimit="10"/>
<path d="M159.931 601.333C164.196 604.33 175.48 607.326 186.502 595.34" stroke="black" stroke-width="5"/>
<path d="M201.689 664.957C200.46 654.561 196.362 640.834 193.906 629.191C191.447 617.548 188.988 607.984 187.351 600.914C187.351 600.914 189.399 608.814 179.974 614.635C173.711 618.509 168.539 617.222 164.326 614.589C164.843 617.231 165.037 620.504 165.227 626.281C165.636 638.758 162.359 664.123 166.864 672.44C171.371 680.76 180.385 685.332 189.399 683.67C198.412 682.006 202.917 675.353 201.689 664.957Z" fill="white"/>
<path d="M201.689 664.957C200.46 654.561 196.362 640.834 193.906 629.191C191.447 617.548 188.988 607.984 187.351 600.914C187.351 600.914 189.399 608.814 179.974 614.635C173.711 618.509 168.539 617.222 164.326 614.589C164.843 617.231 165.037 620.504 165.227 626.281C165.636 638.758 162.359 664.123 166.864 672.44C171.371 680.76 180.385 685.332 189.399 683.67C198.412 682.006 202.917 675.353 201.689 664.957Z" stroke="#393939" stroke-width="1.33333" stroke-miterlimit="10"/>
<path d="M189.398 683.67C198.412 682.006 202.917 675.353 201.689 664.957C201.591 664.114 201.445 663.219 201.309 662.336C198.996 673.952 192.614 680.895 181.615 679.096C172.841 677.658 167.198 666.502 164.545 659.736C164.751 665.103 165.381 669.703 166.864 672.44C171.371 680.76 180.385 685.332 189.398 683.67Z" fill="white"/>
<path d="M189.398 683.67C198.412 682.006 202.917 675.353 201.689 664.957C201.591 664.114 201.445 663.219 201.309 662.336C198.996 673.952 192.614 680.895 181.615 679.096C172.841 677.658 167.198 666.502 164.545 659.736C164.751 665.103 165.381 669.703 166.864 672.44C171.371 680.76 180.385 685.332 189.398 683.67Z" stroke="#393939" stroke-width="1.33333" stroke-miterlimit="10"/>
<path d="M225.86 510.674C225.86 510.674 226.682 525.228 229.55 531.052C232.417 536.873 238.562 537.705 242.249 545.191C245.936 552.676 247.167 554.755 242.66 570.558C240.27 578.936 235.648 592.989 243.041 600.11C254.47 611.118 264.149 595.8 268.126 585.95C271.866 576.682 272.035 567.075 270.927 557.249C269.288 542.695 269.288 541.448 269.288 538.952C269.288 536.458 279.122 522.317 273.795 508.178C268.471 494.042 259.046 495.286 259.046 495.286C259.046 495.286 230.367 489.882 225.86 510.674Z" fill="#393939"/>
<path d="M243.041 600.11C235.648 592.989 240.27 578.936 242.66 570.558L270.927 557.249C272.035 567.075 271.866 576.682 268.126 585.95C264.149 595.8 254.47 611.118 243.041 600.11Z" fill="white"/>
<path d="M242.103 541.399C246.367 544.396 257.652 547.393 268.674 535.406" stroke="black" stroke-width="5"/>
<path d="M225.86 510.674C225.86 510.674 226.682 525.228 229.55 531.052C232.417 536.873 238.562 537.705 242.249 545.191C245.936 552.676 247.167 554.755 242.66 570.558C240.27 578.936 235.648 592.989 243.041 600.11C254.47 611.118 264.149 595.8 268.126 585.95C271.866 576.682 272.035 567.075 270.927 557.249C269.288 542.695 269.288 541.448 269.288 538.952C269.288 536.458 279.122 522.317 273.795 508.178C268.471 494.042 259.046 495.286 259.046 495.286C259.046 495.286 230.367 489.882 225.86 510.674Z" stroke="#393939" stroke-width="1.33333" stroke-miterlimit="10"/>
<path d="M214.39 447.464C214.39 447.464 217.257 501.524 222.993 512.339C228.73 523.15 247.575 528.557 254.539 523.982C261.505 519.405 266.831 495.702 268.879 481.98C270.927 468.256 273.386 449.543 273.386 449.543L214.39 447.464Z" fill="#393939"/>
<path d="M214.39 447.464C214.39 447.464 217.257 501.524 222.993 512.339C228.73 523.15 247.575 528.557 254.539 523.982C261.505 519.405 266.831 495.702 268.879 481.98C270.927 468.256 273.386 449.543 273.386 449.543L214.39 447.464Z" stroke="#393939" stroke-width="1.33333" stroke-miterlimit="10"/>
<path d="M139.825 296.507C139.825 296.507 138.359 348.49 137.54 369.283C136.72 390.075 132.624 424.176 130.985 432.909C129.346 441.643 139.825 456.197 139.825 456.197C139.825 456.197 133.877 488.294 163.375 492.454C192.874 496.611 185.43 464.485 188.47 454.496L195.851 442.509L199.23 403.552L214.548 456.197C214.548 456.197 218.977 458.491 223.812 456.197C252.491 452.869 261.505 454.95 270.519 454.533C267.689 458.491 271.626 462.487 271.626 462.487C271.626 462.487 278.022 427.026 274.578 387.57C267.204 350.56 275.434 330.607 268.06 316.885L260.685 303.163C260.685 303.163 203.739 306.074 182.844 305.656C161.948 305.242 142.692 297.756 142.692 297.756" fill="#393939"/>
<path d="M139.825 296.507C139.825 296.507 138.359 348.49 137.54 369.283C136.72 390.075 132.624 424.176 130.985 432.909C129.346 441.643 139.825 456.197 139.825 456.197C139.825 456.197 133.877 488.294 163.375 492.454C192.874 496.611 185.43 464.485 188.47 454.496L195.851 442.509L199.23 403.552L214.548 456.197C214.548 456.197 218.977 458.491 223.812 456.197C252.491 452.869 261.505 454.95 270.519 454.533C267.689 458.491 271.626 462.487 271.626 462.487C271.626 462.487 278.022 427.026 274.578 387.57C267.204 350.56 275.434 330.607 268.06 316.885L260.685 303.163C260.685 303.163 203.739 306.074 182.844 305.656C161.948 305.242 142.692 297.756 142.692 297.756" stroke="#393939" stroke-width="1.33333" stroke-miterlimit="10"/>
<path d="M39.2055 293.998L29.9811 302.084C29.9811 302.084 16.1454 307.19 13.6302 311.445C11.1151 315.703 9.01698 324.64 6.92307 325.491C4.825 326.342 -0.624578 326.766 1.47141 329.321C3.5674 331.876 7.75939 331.023 7.75939 331.023C7.75939 331.023 9.43826 339.535 10.6959 341.235C11.9535 342.939 16.5646 339.535 24.9507 336.129C33.3367 332.725 34.5943 334.001 36.2711 328.044C37.9479 322.087 40.8823 311.445 40.8823 311.445L46.7532 305.914L39.2055 293.998Z" fill="white"/>
<path d="M39.2055 293.998L29.9811 302.084C29.9811 302.084 16.1454 307.19 13.6302 311.445C11.1151 315.703 9.01698 324.64 6.92307 325.491C4.825 326.342 -0.624578 326.766 1.47141 329.321C3.5674 331.876 7.75939 331.023 7.75939 331.023C7.75939 331.023 9.43826 339.535 10.6959 341.235C11.9535 342.939 16.5646 339.535 24.9507 336.129C33.3367 332.725 34.5943 334.001 36.2711 328.044C37.9479 322.087 40.8823 311.445 40.8823 311.445L46.7531 305.914L39.2055 293.998Z" stroke="#393939" stroke-width="1.33333" stroke-miterlimit="10"/>
<path d="M39.2055 293.998L32.5671 299.817L40.8176 311.681C40.8552 311.543 40.8823 311.446 40.8823 311.446L46.7531 305.914L39.2055 293.998Z" fill="#FFA654"/>
<path d="M39.2055 293.998L32.5671 299.817L40.8176 311.681C40.8552 311.543 40.8823 311.446 40.8823 311.446L46.7531 305.914L39.2055 293.998Z" stroke="#393939" stroke-width="1.33333" stroke-miterlimit="10"/>
<path d="M7.76025 331.023L26.6158 321.453C27.8234 320.841 29.2895 321.285 29.9548 322.479C31.1332 324.598 32.8099 327.933 33.3355 330.598" stroke="#393939" stroke-width="1.33333" stroke-miterlimit="10"/>
<path d="M29.9284 320.61L33.0005 319.05C34.988 318.041 37.3989 318.997 38.1852 321.108L38.4542 321.828C39.2259 323.898 38.1018 326.197 36.012 326.826L33.7742 327.499L29.9284 320.61Z" fill="#393939"/>
<path d="M29.9284 320.61L33.0005 319.05C34.988 318.041 37.3989 318.997 38.1852 321.108L38.4542 321.828C39.2259 323.898 38.1018 326.197 36.012 326.826L33.7742 327.499L29.9284 320.61Z" stroke="#393939" stroke-width="1.33333" stroke-miterlimit="10"/>
<path d="M26.6159 321.453C26.6159 321.453 29.0226 320.149 29.0226 315.327" stroke="#393939" stroke-width="1.33333" stroke-miterlimit="10"/>
<path d="M360.471 290.512L370.894 296.924C370.894 296.924 385.372 299.619 388.553 303.389C391.731 307.159 395.268 315.616 397.475 316.101C399.681 316.586 405.125 316.084 403.477 318.957C401.829 321.827 397.556 321.698 397.556 321.698C397.556 321.698 397.3 330.373 396.338 332.266C395.379 334.156 390.271 331.58 381.445 329.641C372.617 327.704 371.587 329.175 368.955 323.584C366.325 317.994 361.682 308 361.682 308L354.986 303.537L360.471 290.512Z" fill="white"/>
<path d="M360.471 290.512L370.894 296.924C370.894 296.924 385.372 299.619 388.553 303.389C391.731 307.159 395.268 315.616 397.475 316.101C399.681 316.586 405.125 316.084 403.477 318.957C401.829 321.827 397.556 321.698 397.556 321.698C397.556 321.698 397.3 330.373 396.338 332.266C395.379 334.156 390.271 331.58 381.445 329.641C372.617 327.704 371.587 329.175 368.955 323.584C366.325 317.994 361.682 308 361.682 308L354.986 303.537L360.471 290.512Z" stroke="#393939" stroke-width="1.33333" stroke-miterlimit="10"/>
<path d="M360.471 290.512L367.97 295.127L361.784 308.218C361.724 308.091 361.682 308 361.682 308L354.986 303.538L360.471 290.512Z" fill="#FFA654"/>
<path d="M360.471 290.512L367.97 295.127L361.784 308.218C361.724 308.091 361.682 308 361.682 308L354.986 303.538L360.471 290.512Z" stroke="#393939" stroke-width="1.33333" stroke-miterlimit="10"/>
<path d="M397.557 321.699L377.394 315.455C376.103 315.052 374.728 315.742 374.269 317.03C373.454 319.318 372.349 322.889 372.269 325.607" stroke="#393939" stroke-width="1.33333" stroke-miterlimit="10"/>
<path d="M373.988 315.181L370.703 314.165C368.576 313.505 366.357 314.857 365.93 317.07L365.781 317.825C365.36 319.995 366.845 322.074 369.01 322.339L371.327 322.624L373.988 315.181Z" fill="#393939"/>
<path d="M373.988 315.181L370.703 314.165C368.576 313.505 366.357 314.857 365.93 317.07L365.781 317.825C365.36 319.995 366.845 322.074 369.01 322.339L371.327 322.624L373.988 315.181Z" stroke="#393939" stroke-width="1.33333" stroke-miterlimit="10"/>
<path d="M377.394 315.454C377.394 315.454 374.806 314.576 374.013 309.821" stroke="#393939" stroke-width="1.33333" stroke-miterlimit="10"/>
<path d="M178.629 128.026C178.629 128.026 119.704 143.346 118.027 152.709C116.35 162.07 105.03 192.712 105.03 194.84C105.03 196.967 91.1941 245.483 91.1941 245.483C91.1941 245.483 85.7445 249.74 85.3253 251.442C85.3253 251.442 64.7804 263.356 56.8157 272.296C48.8488 281.231 35.4324 288.465 36.2708 291.445C37.1092 294.424 41.3012 311.872 54.7176 311.446C68.134 311.023 109.643 290.169 118.027 281.657C126.413 273.145 138.572 246.759 138.572 246.759C138.572 246.759 130.186 274.423 132.284 280.806C134.38 287.19 136.476 298.681 143.183 301.659C149.892 304.638 171.276 312.297 209.848 311.446C248.42 310.597 258.903 309.319 264.352 301.234C269.804 293.147 272.738 284.212 273.996 273.998C275.253 263.781 275.253 259.954 275.253 256.122C275.253 252.293 284.476 273.145 307.119 287.19C329.757 301.234 343.595 314.85 347.787 310.17C351.979 305.489 366.655 298.681 364.14 286.339C361.623 273.998 352.4 271.87 341.08 260.377C329.757 248.889 324.727 236.973 324.727 236.973C324.727 236.973 325.987 231.014 323.469 228.035L320.952 225.055C320.952 225.055 329.338 208.032 318.437 191.01C307.538 173.986 303.763 168.88 294.539 157.389C285.316 145.899 287.412 142.92 278.19 137.389C268.965 131.855 258.637 132.281 237.675 128.026C216.711 123.771 227.696 134.604 200.279 134.352C182.073 135.351 178.629 128.026 178.629 128.026Z" fill="#FFA654"/>
<path d="M178.629 128.026C178.629 128.026 119.704 143.346 118.027 152.709C116.35 162.07 105.03 192.712 105.03 194.84C105.03 196.967 91.1941 245.483 91.1941 245.483C91.1941 245.483 85.7445 249.74 85.3253 251.442C85.3253 251.442 64.7804 263.356 56.8157 272.296C48.8488 281.231 35.4324 288.465 36.2708 291.445C37.1092 294.424 41.3012 311.872 54.7176 311.446C68.134 311.023 109.643 290.169 118.027 281.657C126.413 273.145 138.572 246.759 138.572 246.759C138.572 246.759 130.186 274.423 132.284 280.806C134.38 287.19 136.476 298.681 143.183 301.659C149.892 304.638 171.276 312.297 209.848 311.446C248.42 310.597 258.903 309.319 264.352 301.234C269.804 293.147 272.738 284.212 273.996 273.998C275.253 263.781 275.253 259.954 275.253 256.122C275.253 252.293 284.476 273.145 307.119 287.19C329.757 301.234 343.595 314.85 347.787 310.17C351.979 305.489 366.655 298.681 364.14 286.339C361.623 273.998 352.4 271.87 341.08 260.377C329.757 248.889 324.727 236.973 324.727 236.973C324.727 236.973 325.987 231.014 323.469 228.035L320.952 225.055C320.952 225.055 329.338 208.032 318.437 191.01C307.538 173.986 303.763 168.88 294.539 157.389C285.316 145.899 287.412 142.92 278.19 137.389C268.965 131.855 257.16 132.281 236.198 128.026C215.234 123.771 227.696 134.105 200.279 133.853C180.597 133.853 178.629 128.026 178.629 128.026Z" stroke="#393939" stroke-width="1.33333" stroke-miterlimit="10"/>
<path d="M275.254 256.123C275.254 256.123 279.027 230.589 281.544 209.309C284.059 188.03 278.188 171.008 274.416 164.625" stroke="#393939" stroke-width="1.33333" stroke-miterlimit="10"/>
<path d="M137.733 173.986C137.733 173.986 133.122 189.306 136.895 202.076C140.668 214.841 140.668 221.225 140.248 228.035C139.829 234.844 138.572 246.76 138.572 246.76" stroke="#393939" stroke-width="1.33333" stroke-miterlimit="10"/>
<path d="M142.765 270.592C144.022 269.741 167.921 236.545 167.921 236.545L172.113 239.526L145.699 274.849" fill="white"/>
<path d="M142.765 270.592C144.022 269.741 167.921 236.545 167.921 236.545L172.113 239.526L145.699 274.849" stroke="#393939" stroke-miterlimit="10"/>
<path d="M235.842 242.079L259.321 283.359L263.935 279.955L240.873 240.377" fill="white"/>
<path d="M235.842 242.079L259.321 283.359L263.935 279.955L240.873 240.377" stroke="#393939" stroke-miterlimit="10"/>
<path d="M173.371 308.467C173.371 308.467 171.694 305.49 158.278 291.87" stroke="#393939" stroke-width="1.33333" stroke-miterlimit="10"/>
<path d="M209.848 311.446C209.848 311.446 224.941 304.638 228.297 296.552" stroke="#393939" stroke-width="1.33333" stroke-miterlimit="10"/>
<path d="M223.683 309.745C223.683 309.745 228.713 309.319 232.069 304.213" stroke="#393939" stroke-width="1.33333" stroke-miterlimit="10"/>
<path d="M181.389 92.7166C181.389 92.7166 179.969 102.802 184.511 111.155C189.054 119.51 193.594 127.866 197.853 127.002C202.109 126.138 217.438 109.715 220.558 105.393C223.68 101.072 225.951 92.4286 225.951 92.4286C225.951 92.4286 199.838 105.393 181.389 92.7166Z" fill="white"/>
<path d="M181.389 92.7166C181.389 92.7166 179.969 102.802 184.511 111.155C189.054 119.51 193.594 127.866 197.853 127.002C202.109 126.138 217.438 109.715 220.558 105.393C223.68 101.072 225.951 92.4287 225.951 92.4287C225.951 92.4287 199.838 105.393 181.389 92.7166Z" stroke="#393939" stroke-width="1.33333" stroke-miterlimit="10"/>
<path d="M225.952 92.4286C225.952 92.4286 199.839 105.395 181.39 92.7165C181.39 92.7165 181.019 95.3901 181.271 99.1159C185.367 105.797 193.582 115.596 205.491 121.464C211.424 116.03 218.54 108.189 220.559 105.395C223.681 101.072 225.952 92.4286 225.952 92.4286Z" fill="#393939"/>
<path d="M225.952 92.4286C225.952 92.4286 199.839 105.395 181.39 92.7165C181.39 92.7165 181.019 95.3901 181.271 99.1159C185.367 105.797 193.582 115.596 205.491 121.464C211.424 116.03 218.54 108.189 220.559 105.395C223.681 101.072 225.952 92.4286 225.952 92.4286Z" stroke="#393939" stroke-width="1.33333" stroke-miterlimit="10"/>
<path d="M173.189 58.831C173.189 58.831 166.865 53.1809 165.247 58.1747C163.631 63.1686 164.298 68.228 168.227 72.6312C172.154 77.0344 174.636 77.7118 174.636 77.7118L173.189 58.831Z" fill="white"/>
<path d="M173.189 58.831C173.189 58.831 166.865 53.1809 165.247 58.1747C163.631 63.1686 164.298 68.228 168.227 72.6312C172.154 77.0344 174.636 77.7118 174.636 77.7118L173.189 58.831Z" stroke="#393939" stroke-width="1.33333" stroke-miterlimit="10"/>
<path d="M233.899 65.0586C233.899 65.0586 240.996 60.4479 241.849 65.6344C242.7 70.8208 241.28 75.7194 236.737 79.4642C232.197 83.209 229.642 83.4969 229.642 83.4969L233.899 65.0586Z" fill="white"/>
<path d="M233.899 65.0586C233.899 65.0586 240.996 60.4479 241.849 65.6344C242.7 70.8208 241.28 75.7194 236.737 79.4642C232.197 83.209 229.642 83.4969 229.642 83.4969L233.899 65.0586Z" stroke="#393939" stroke-width="1.33333" stroke-miterlimit="10"/>
<path d="M200.123 6.85964C200.123 6.85964 181.672 2.53689 177.982 17.5204C174.293 32.5019 170.887 55.5509 171.171 66.2117C171.454 76.8704 176.848 92.4276 179.686 95.5966C182.525 98.7678 190.756 107.121 196.717 107.411C202.677 107.699 216.87 103.952 223.397 97.3262C229.925 90.7002 228.791 84.3622 232.196 73.7014C235.604 63.0427 240.712 47.7712 237.59 32.5019C234.468 17.2325 236.739 20.9774 224.818 11.4703C212.897 1.9632 196.717 -4.08694 200.123 6.85964Z" fill="white"/>
<path d="M200.123 6.85964C200.123 6.85964 181.672 2.53689 177.982 17.5204C174.293 32.5019 170.887 55.5509 171.171 66.2117C171.454 76.8704 176.848 92.4276 179.686 95.5966C182.525 98.7678 190.756 107.121 196.717 107.411C202.677 107.699 216.87 103.952 223.397 97.3262C229.925 90.7002 228.791 84.3622 232.196 73.7014C235.604 63.0427 240.712 47.7712 237.59 32.5019C234.468 17.2325 236.739 20.9774 224.818 11.4703C212.897 1.9632 196.717 -4.08695 200.123 6.85964Z" stroke="#393939" stroke-width="1.33333" stroke-miterlimit="10"/>
<path d="M237.59 32.5015C234.468 17.2322 236.739 20.977 224.818 11.4699C212.897 1.96283 196.717 -4.08733 200.123 6.85927C200.123 6.85927 181.672 2.53864 177.982 17.5201C175.688 26.8366 173.504 39.2714 172.249 49.9068L172.875 49.7883C172.875 49.7883 176.564 49.2125 177.131 41.7207C177.699 34.231 177.982 23.8581 181.106 23.5702C184.228 23.2823 189.905 31.3499 199.272 28.1788C208.638 25.0097 213.747 19.5354 221.696 22.9944C229.642 26.4514 232.482 33.0773 230.495 35.9584C228.507 38.8396 226.803 43.1623 228.791 46.6192C230.776 50.0762 232.482 52.9573 233.047 55.5505C233.471 57.4833 233.736 64.8629 233.844 68.4891C236.974 58.3576 240.236 45.4359 237.59 32.5015Z" fill="#393939"/>
<path d="M237.59 32.5015C234.468 17.2322 236.739 20.977 224.818 11.4699C212.897 1.96283 196.717 -4.08732 200.123 6.85927C200.123 6.85927 181.672 2.53863 177.982 17.5201C175.688 26.8366 173.504 39.2714 172.249 49.9068L172.875 49.7883C172.875 49.7883 176.564 49.2125 177.131 41.7207C177.699 34.231 177.982 23.8581 181.106 23.5702C184.228 23.2823 189.905 31.3499 199.272 28.1788C208.638 25.0097 213.747 19.5354 221.696 22.9944C229.642 26.4514 232.482 33.0773 230.495 35.9584C228.507 38.8396 226.803 43.1623 228.791 46.6192C230.776 50.0762 232.482 52.9573 233.047 55.5505C233.471 57.4833 233.736 64.8629 233.844 68.4891C236.974 58.3576 240.236 45.4359 237.59 32.5015V32.5015Z" stroke="#393939" stroke-width="1.33333" stroke-miterlimit="10"/>
<path d="M196.149 51.805L197.567 56.4156L195.582 61.6" stroke="#393939" stroke-width="1.33333" stroke-miterlimit="10"/>
<path d="M195.298 69.9554C195.298 70.8191 199.838 75.1419 206.652 71.6849" stroke="#393939" stroke-width="1.33333" stroke-miterlimit="10"/>
<path d="M202.678 84.3622C202.678 85.7933 201.533 86.9554 200.123 86.9554C198.713 86.9554 197.568 85.7933 197.568 84.3622C197.568 82.9291 198.713 81.769 200.123 81.769C201.533 81.769 202.678 82.9291 202.678 84.3622Z" fill="#393939"/>
<path d="M189.337 57.279C189.337 58.5513 188.573 59.5844 187.635 59.5844C186.692 59.5844 185.931 58.5513 185.931 57.279C185.931 56.0068 186.692 54.9737 187.635 54.9737C188.573 54.9737 189.337 56.0068 189.337 57.279Z" fill="#393939"/>
<path d="M216.869 58.1433C216.869 59.4177 216.106 60.4486 215.168 60.4486C214.225 60.4486 213.464 59.4177 213.464 58.1433C213.464 56.871 214.225 55.8401 215.168 55.8401C216.106 55.8401 216.869 56.871 216.869 58.1433Z" fill="#393939"/>
<path d="M181.389 48.3475C181.389 48.3475 187.35 46.0443 193.878 50.077" stroke="#393939" stroke-width="1.33333" stroke-miterlimit="10"/>
<path d="M210.058 51.8048C210.058 51.8048 217.439 47.772 225.952 52.0927L210.058 51.8048Z" fill="white"/>
<path d="M210.058 51.8048C210.058 51.8048 217.439 47.772 225.952 52.0927" stroke="#393939" stroke-width="1.33333" stroke-miterlimit="10"/>
<path d="M138.773 309.657C163.047 318.98 222.224 332.032 264.737 309.657" stroke="black"/>
<path d="M137.789 316.649C163.012 325.694 224.5 338.358 268.674 316.649" stroke="black" stroke-width="3" stroke-linejoin="round"/>
<path d="M189.946 352.609C192.406 369.923 199 409.946 205.692 431.522C214.056 458.492 230.786 515.428 244.071 516.427" stroke="white"/>
<path d="M153.535 508.436C156.651 511.766 164.95 517.026 173.216 511.433" stroke="white" stroke-linejoin="round"/>
<path d="M281.959 191.788L135.156 190.789C134.668 192.598 134.376 198.486 137.106 207.565C139.835 216.645 140.518 227.138 140.518 231.25L278.464 231.743C281.193 218.322 282.609 199.847 281.959 191.788Z" fill="black" stroke="#393939"/>
<path d="M169.772 131.355C180.597 140.345 216.025 146.838 233.738 128.358" stroke="#393939"/>
<path d="M169.772 129.357C180.597 138.347 216.025 144.84 233.738 126.361" stroke="#393939" stroke-dasharray="1 1"/>
</svg>
